<?xml version="1.0" encoding="UTF-8"?>
<svg version="1.1" xmlns="http://www.w3.org/2000/svg" width="893" height="187">
<path d="M0 0 C3.77135579 2.03768243 6.30984284 4.79554869 8.73046875 8.28125 C9.72046875 5.64125 10.71046875 3.00125 11.73046875 0.28125 C18.33046875 0.28125 24.93046875 0.28125 31.73046875 0.28125 C29.89707185 12.0683017 28.0411286 23.85148996 26.15478516 35.63018799 C25.87650802 37.36881965 25.59881828 39.10754544 25.32177734 40.84637451 C24.55435196 45.66046956 23.77475033 50.4722774 22.97637939 55.28134155 C22.73177596 56.76508255 22.49108524 58.24947461 22.25457764 59.73452759 C18.44435964 83.59365291 18.44435964 83.59365291 8.57421875 90.87109375 C-3.31006946 98.56203343 -16.50532957 99.94581727 -30.30078125 97.8125 C-37.38960586 95.97465658 -43.23912454 92.39031027 -47.26953125 86.21875 C-48.24728212 83.34660682 -48.5346914 81.28639832 -48.26953125 78.28125 C-41.93179657 76.74792709 -35.76803336 75.79678879 -29.26953125 75.28125 C-28.67140625 76.250625 -28.07328125 77.22 -27.45703125 78.21875 C-25.55825616 81.51177042 -25.55825616 81.51177042 -22.26953125 82.28125 C-14.98750874 82.87570082 -9.80817055 82.48230542 -3.71875 78.1875 C-1.44174477 75.19240956 -1.16194388 71.72216509 -0.58203125 68.09375 C-0.45248047 67.34416016 -0.32292969 66.59457031 -0.18945312 65.82226562 C0.12787413 63.97706641 0.43060166 62.129367 0.73046875 60.28125 C-0.02621094 61.05855469 -0.78289063 61.83585937 -1.5625 62.63671875 C-7.29154977 68.23349608 -12.23890861 69.68826675 -20.26953125 69.78125 C-26.29704732 69.6908131 -31.57362866 69.35027239 -36.26953125 65.28125 C-43.26622981 58.01665983 -44.70112798 50.639578 -44.51953125 40.75390625 C-43.53356702 27.05824688 -38.74404322 14.46910047 -28.26953125 5.28125 C-19.76526646 -0.00552588 -9.95420686 -3.15245105 0 0 Z M-17.45703125 21.34375 C-22.46285254 27.59774195 -23.83884033 35.1497332 -23.5546875 43.01953125 C-22.98765298 47.51696941 -21.47288994 50.27845109 -18.01953125 53.15625 C-13.4047716 55.04410622 -9.80216809 54.83299926 -5.14453125 53.15625 C-0.00514113 49.80447383 3.26121068 45.59705852 5.22265625 39.7578125 C6.50996607 33.47970155 7.51891049 25.20953991 3.98046875 19.53125 C0.87820923 16.42899048 -0.78545168 15.442563 -5.14453125 14.96875 C-10.41194905 15.49549178 -13.85177761 17.569361 -17.45703125 21.34375 Z " fill="#E2E2E2" transform="translate(782.26953125,53.71875)"/>
<path d="M0 0 C5.64363397 6.71553699 6 12.03904437 6 21 C-0.6 21 -7.2 21 -14 21 C-14.99 18.69 -15.98 16.38 -17 14 C-19.40845963 11.3828072 -20.68897159 11.04159537 -24.2421875 10.56640625 C-33.49754511 10.3505449 -33.49754511 10.3505449 -41 15 C-43.33043558 18.49565336 -43.58763244 19.8865729 -43 24 C-37.98069101 29.54420404 -30.03236807 30.41543372 -23.078125 32.1796875 C-14.41422351 34.5189409 -5.87271731 38.00874362 -1 46 C1.86138394 52.8128189 1.56028591 59.89551654 -1.046875 66.75390625 C-6.06898855 77.15464142 -12.72206439 82.96333168 -23.6875 86.8125 C-36.35097431 90.56300633 -50.50474135 90.24972433 -62.64453125 84.81640625 C-68.67141134 81.28823267 -72.13394618 76.74157679 -74 70 C-74.37204956 65.56967299 -74.23725483 61.46039077 -74 57 C-67.4 57 -60.8 57 -54 57 C-53.34 59.64 -52.68 62.28 -52 65 C-49.69966669 67.89396771 -48.51696795 68.82767735 -45 70 C-37.48788218 70.62686619 -30.0855646 71.02990543 -24 66 C-21.53537362 62.66550549 -20.93996559 61.00057356 -21.1875 56.875 C-25.25797234 50.4183887 -34.64547201 49.50811034 -41.625 47.5 C-50.87977093 44.82923422 -58.38314678 42.36082413 -64 34 C-66.85879659 28.53099783 -66.22352954 22.88573689 -65 17 C-61.64675122 7.42724 -56.0562193 1.40611347 -47.1875 -3.3125 C-32.02695831 -10.37486414 -13.51784445 -10.75765631 0 0 Z " fill="#E2E2E2" transform="translate(599,37)"/>
<path d="M0 0 C5.01792252 5.00733619 6.517588 9.60974607 6.5625 16.625 C6.4696875 19.1309375 6.4696875 19.1309375 6.375 21.6875 C-0.225 21.6875 -6.825 21.6875 -13.625 21.6875 C-14.285 19.3775 -14.945 17.0675 -15.625 14.6875 C-20.15576399 10.7857876 -24.81240825 11.25148056 -30.51953125 11.40625 C-34.2705848 11.74596806 -36.64825392 12.3374373 -39.625 14.6875 C-41.97002527 17.98519179 -42.68016458 19.76809039 -42.4375 23.8125 C-38.7439073 29.67130222 -31.3965304 30.52116351 -25.01635742 32.13134766 C-14.17019358 34.87168794 -6.24171643 38.27443317 0.375 47.6875 C2.87517085 55.18801256 1.95996155 63.26845467 -1.30859375 70.375 C-6.23229513 79.02435079 -13.45003585 84.76913482 -22.95703125 87.72265625 C-36.43154238 90.91672449 -51.49750999 91.58188672 -63.6875 84.09375 C-69.51468467 79.86434177 -72.15432795 74.55449626 -73.625 67.6875 C-73.95398548 64.18829084 -74.23433805 60.90617609 -72.625 57.6875 C-66.025 57.6875 -59.425 57.6875 -52.625 57.6875 C-51.965 60.6575 -51.305 63.6275 -50.625 66.6875 C-47.57828403 70.15737097 -45.89939688 70.55764439 -41.328125 71.0234375 C-34.76756413 71.20336849 -30.4405678 70.87422828 -24.625 67.6875 C-23.965 67.6875 -23.305 67.6875 -22.625 67.6875 C-20.832701 63.87886463 -19.99866416 60.89289781 -20.625 56.6875 C-25.654112 51.16640966 -33.5140374 50.28392557 -40.45898438 48.5078125 C-48.90607672 46.21994799 -57.23176791 43.20397556 -62.75 36.0625 C-65.97098525 30.05610759 -65.56894269 23.39471626 -63.92578125 16.94140625 C-60.30671226 6.90879726 -54.05782891 1.36834572 -44.625 -3.3125 C-30.48278538 -9.14644728 -12.47875465 -10.14755873 0 0 Z " fill="#E2E2E2" transform="translate(240.625,36.3125)"/>
<path d="M0 0 C6.6 0 13.2 0 20 0 C19.25342166 10.32924214 17.5874323 20.47313527 15.9375 30.6875 C15.65265817 32.46804514 15.36815027 34.24864373 15.08398438 36.02929688 C14.39317094 40.35349043 13.6978438 44.67693569 13 49 C13.63164062 48.24267578 14.26328125 47.48535156 14.9140625 46.70507812 C34.30948644 23.80947861 34.30948644 23.80947861 45.00390625 22.33984375 C50.76117454 22.17140407 56.37726802 22.76511157 62 24 C57.44121975 29.46621518 52.60745844 34.54430527 47.5625 39.5625 C46.47485352 40.65594727 46.47485352 40.65594727 45.36523438 41.77148438 C41.0670973 46.06189794 36.66407473 50.11019855 32 54 C32.46148437 54.92296875 32.92296875 55.8459375 33.3984375 56.796875 C39.59895833 69.19791667 45.79947917 81.59895833 52 94 C44.08 94 36.16 94 28 94 C23.25 84.9375 23.25 84.9375 21.77832031 82.12475586 C19.27560914 77.36013547 16.70280078 72.65412191 14 68 C11.00334918 69.6498973 9.2965845 71.09903035 8.21240234 74.39257812 C7.60924847 77.33723774 7.1234076 80.27601567 6.6875 83.25 C6.51927734 84.28125 6.35105469 85.3125 6.17773438 86.375 C5.7663719 88.91369414 5.38067093 91.45652272 5 94 C-1.6 94 -8.2 94 -15 94 C-14.32791572 83.75432253 -12.78027739 73.76706499 -11.09375 63.65234375 C-10.80576718 61.90553873 -10.51813501 60.15867587 -10.23083496 58.41175842 C-9.63193465 54.77637108 -9.02987142 51.14152735 -8.42529297 47.50708008 C-7.65028503 42.84740758 -6.88172224 38.18670043 -6.11528778 33.52561092 C-5.52361379 29.92999381 -4.92939167 26.33480171 -4.33430481 22.739748 C-4.04983093 21.02022771 -3.7659627 19.3006071 -3.48271179 17.58088493 C-3.08795263 15.1875381 -2.68996191 12.79475157 -2.29101562 10.40209961 C-2.17462234 9.69302963 -2.05822906 8.98395966 -1.93830872 8.25340271 C-1.45954636 5.40001521 -0.91702025 2.75106075 0 0 Z " fill="#E2E2E2" transform="translate(464,30)"/>
<path d="M0 0 C1.20716171 -0.0071553 2.41432343 -0.01431061 3.6580658 -0.02168274 C5.00297521 -0.02452312 6.34788489 -0.02723483 7.6927948 -0.02983093 C9.10368009 -0.03609472 10.51456373 -0.04274145 11.92544556 -0.04974365 C15.76437764 -0.06716085 19.60329726 -0.07770732 23.44225907 -0.08594918 C25.84004511 -0.09109772 28.23782728 -0.09717351 30.63561058 -0.10346031 C38.13580947 -0.12251424 45.6359985 -0.13674505 53.13621694 -0.14507228 C61.79754977 -0.15484708 70.45862719 -0.18117192 79.11987001 -0.22157317 C85.81207969 -0.25171979 92.5042161 -0.26653975 99.19649237 -0.26985329 C103.19464579 -0.27220542 107.19252642 -0.28118655 111.19060707 -0.30631447 C114.95239796 -0.3295751 118.71373608 -0.33383682 122.47558022 -0.32355309 C123.85545863 -0.32305712 125.23535917 -0.32939559 126.61516953 -0.34310913 C128.5006064 -0.36079787 130.38623942 -0.35134638 132.27172852 -0.34057617 C133.32642743 -0.34296453 134.38112635 -0.34535288 135.46778584 -0.34781361 C139.05303127 0.27300428 140.72646515 1.65391921 143.32633972 4.14717102 C145.1749666 7.84442477 144.80221066 12.11178544 144.32633972 16.14717102 C142.52987118 19.08140297 141.38223262 20.61922457 138.32633972 22.14717102 C136.43724586 22.24936896 134.54452012 22.28666836 132.65267944 22.29434204 C131.44551773 22.30149734 130.23835602 22.30865265 128.99461365 22.31602478 C127.64970424 22.31886516 126.30479455 22.32157687 124.95988464 22.32417297 C123.54899935 22.33043677 122.13811571 22.33708349 120.72723389 22.34408569 C116.8883018 22.36150289 113.04938218 22.37204936 109.21042037 22.38029122 C106.81263433 22.38543976 104.41485217 22.39151555 102.01706886 22.39780235 C94.51686998 22.41685628 87.01668095 22.43108709 79.5164625 22.43941432 C70.85512968 22.44918912 62.19405225 22.47551396 53.53280944 22.51591522 C46.84059976 22.54606183 40.14846334 22.56088179 33.45618707 22.56419533 C29.45803365 22.56654746 25.46015303 22.57552859 21.46207237 22.60065651 C17.70028148 22.62391714 13.93894336 22.62817886 10.17709923 22.61789513 C8.79722082 22.61739916 7.41732027 22.62373763 6.03750992 22.63745117 C4.15207304 22.65513991 2.26644002 22.64568842 0.38095093 22.63491821 C-0.67374799 22.63730657 -1.7284469 22.63969492 -2.81510639 22.64215565 C-6.40035182 22.02133776 -8.07378571 20.64042283 -10.67366028 18.14717102 C-12.52228716 14.44991727 -12.14953122 10.1825566 -11.67366028 6.14717102 C-8.38141586 0.76983847 -6.06525777 0.0246019 0 0 Z " fill="#B4B4B4" transform="translate(11.673660278320313,23.852828979492188)"/>
<path d="M0 0 C0.96445541 -0.00852997 1.92891083 -0.01705994 2.92259216 -0.02584839 C4.4998835 -0.02448883 4.4998835 -0.02448883 6.10903931 -0.02310181 C7.22164627 -0.02981903 8.33425323 -0.03653625 9.48057556 -0.04345703 C13.16357879 -0.06247614 16.84640017 -0.0663632 20.52944946 -0.06851196 C23.08768794 -0.07493703 25.64592568 -0.08166517 28.2041626 -0.08868408 C33.56912232 -0.10066657 38.93401416 -0.10444949 44.29898071 -0.10317993 C50.49296836 -0.10197875 56.68660742 -0.12307731 62.88050687 -0.15466726 C68.84670498 -0.18400765 74.81279695 -0.19115506 80.77907181 -0.18996048 C83.3140162 -0.19232164 85.84896314 -0.20117397 88.38386154 -0.21662521 C91.92926741 -0.23621253 95.47377534 -0.23047481 99.01919556 -0.21841431 C100.06667465 -0.22965332 101.11415375 -0.24089233 102.19337463 -0.25247192 C108.17303343 -0.20076233 111.63943306 0.27611935 116.19351196 4.26742554 C119.11553813 8.47311638 118.83000549 13.34624391 118.19351196 18.26742554 C116.13123286 22.39198375 114.44904098 24.57200791 110.19351196 26.26742554 C107.9220829 26.52469444 107.9220829 26.52469444 105.38702393 26.53485107 C104.42256851 26.54338104 103.4581131 26.55191101 102.46443176 26.56069946 C100.88714043 26.5593399 100.88714043 26.5593399 99.27798462 26.55795288 C98.16537766 26.5646701 97.05277069 26.57138733 95.90644836 26.57830811 C92.22344514 26.59732722 88.54062376 26.60121427 84.85757446 26.60336304 C82.29933598 26.6097881 79.74109825 26.61651624 77.18286133 26.62353516 C71.81790161 26.63551764 66.45300976 26.63930056 61.08804321 26.63803101 C54.89405557 26.63682982 48.7004165 26.65792838 42.50651705 26.68951833 C36.54031895 26.71885872 30.57422697 26.72600613 24.60795212 26.72481155 C22.07300772 26.72717271 19.53806079 26.73602505 17.00316238 26.75147629 C13.45775651 26.7710636 9.91324859 26.76532588 6.36782837 26.75326538 C5.32034927 26.76450439 4.27287018 26.77574341 3.19364929 26.787323 C-2.7860095 26.73561341 -6.25240913 26.25873173 -10.80648804 22.26742554 C-13.72851421 18.06173469 -13.44298156 13.18860716 -12.80648804 8.26742554 C-9.78755112 2.22955169 -6.67102502 0.02672725 0 0 Z " fill="#DDDDDD" transform="translate(12.806488037109375,56.732574462890625)"/>
<path d="M0 0 C3.53995583 3.15992081 6.7918661 6.6251806 7.21850586 11.49316406 C7.40487273 21.85856444 5.85136005 31.70746814 4.06420898 41.890625 C3.55643542 44.78456369 3.06496471 47.6809254 2.57617188 50.578125 C2.26133579 52.42203217 1.94561408 54.2657884 1.62890625 56.109375 C1.48095108 56.9738324 1.33299591 57.83828979 1.18055725 58.72894287 C0.11794246 64.76411507 0.11794246 64.76411507 -1 67 C-7.27 67 -13.54 67 -20 67 C-20 65.02 -20 63.04 -20 61 C-20.56847656 61.40992187 -21.13695312 61.81984375 -21.72265625 62.2421875 C-29.18625821 67.45051074 -35.83980574 69.98035524 -45 69 C-51.00531437 67.74807779 -55.06389689 65.89030993 -59 61 C-62.04529679 56.00009783 -61.65531911 50.66084168 -61 45 C-59.03056311 38.15477275 -55.64816663 34.01717259 -49.671875 30.25390625 C-42.35241079 26.81889454 -35.11424599 25.39101877 -27.125 24.4375 C-25.27255482 24.21423698 -23.42092536 23.98406767 -21.5703125 23.74609375 C-20.76352051 23.64997803 -19.95672852 23.5538623 -19.12548828 23.45483398 C-16.71380362 23.07520482 -16.71380362 23.07520482 -14 21 C-13.46288282 16.89780017 -13.46288282 16.89780017 -15.2578125 13.3359375 C-17.99129429 11.23985954 -20.30413413 11.53163978 -23.64453125 11.640625 C-27.49940928 12.2287656 -29.83049049 13.73606463 -33 16 C-33.66 16.99 -34.32 17.98 -35 19 C-37.96528179 19.0562279 -40.68850026 18.95683804 -43.625 18.6875 C-44.42679687 18.62626953 -45.22859375 18.56503906 -46.0546875 18.50195312 C-48.03758124 18.34851492 -50.01898519 18.17604307 -52 18 C-53 15 -53 15 -52.25 13.16796875 C-46.69299333 4.3635863 -40.08487266 -0.31696704 -30.234375 -3.5859375 C-20.48457142 -5.39271928 -8.64292785 -5.18575671 0 0 Z M-26.3125 37.25 C-28.25576172 37.59804687 -28.25576172 37.59804687 -30.23828125 37.953125 C-34.2110829 39.05874373 -36.78384716 40.44246142 -40 43 C-41.5267074 46.05341481 -42.18757961 47.87452236 -41.625 51.25 C-38.94380787 54.13743768 -35.79167251 54.77962929 -32 55 C-26.04176956 54.21628672 -21.76212074 51.79326074 -18.0859375 47.05078125 C-16.21963736 43.52629357 -16.01784515 39.93485613 -16 36 C-19.53723572 36 -22.85178771 36.59754307 -26.3125 37.25 Z " fill="#E2E2E2" transform="translate(360,57)"/>
<path d="M0 0 C5.4986158 4.24840421 8.7440095 9.92965046 10.04296875 16.74609375 C10.16110785 18.8478708 10.2181006 20.9535354 10.23046875 23.05859375 C10.24464844 24.14785156 10.25882813 25.23710938 10.2734375 26.359375 C10.04296875 29.74609375 10.04296875 29.74609375 8.04296875 36.74609375 C-7.46703125 36.74609375 -22.97703125 36.74609375 -38.95703125 36.74609375 C-39.00302886 43.91404645 -39.00302886 43.91404645 -35.95703125 49.74609375 C-31.27623698 52.86662326 -26.43742153 52.33378418 -20.95703125 51.74609375 C-16.85407223 50.31499292 -14.39660032 48.40544736 -11.95703125 44.74609375 C-8.99174946 44.68986585 -6.26853099 44.78925571 -3.33203125 45.05859375 C-2.53023437 45.11982422 -1.7284375 45.18105469 -0.90234375 45.24414062 C1.08054999 45.39757883 3.06195394 45.57005068 5.04296875 45.74609375 C6.04296875 48.74609375 6.04296875 48.74609375 5.109375 50.796875 C-1.25338038 60.36579803 -9.19777758 65.63323863 -20.40234375 68.3359375 C-30.31296738 69.92709267 -39.46083339 68.7534473 -48.26953125 63.93359375 C-53.66756557 59.53984488 -57.5753631 54.66514509 -58.95703125 47.74609375 C-60.10871964 33.76806758 -57.78796155 20.19520103 -48.796875 9.07421875 C-36.80998667 -3.76751899 -15.84893885 -10.15470932 0 0 Z M-33.89453125 17.74609375 C-36.19917876 20.72371365 -36.19917876 20.72371365 -36.95703125 24.74609375 C-27.71703125 24.74609375 -18.47703125 24.74609375 -8.95703125 24.74609375 C-8.52702869 18.52341763 -8.52702869 18.52341763 -10.95703125 13.74609375 C-19.25026349 8.46858233 -27.55797746 10.53048047 -33.89453125 17.74609375 Z " fill="#E2E2E2" transform="translate(877.95703125,57.25390625)"/>
<path d="M0 0 C6.93 0 13.86 0 21 0 C20.566875 2.61550781 20.13375 5.23101562 19.6875 7.92578125 C19.26841744 10.49388833 18.85233318 13.06246474 18.43652344 15.63110352 C18.14863071 17.39951839 17.85768263 19.16743895 17.56347656 20.93481445 C14.33898259 36.52671844 14.33898259 36.52671844 16 52 C20.54532559 53.92302237 25.64342849 53.47878995 30.1875 51.875 C34.80084249 48.79943834 36.96531938 44.97864041 38.125 39.62890625 C38.43113234 37.94266638 38.72202668 36.25360992 39 34.5625 C39.15952148 33.66249268 39.31904297 32.76248535 39.48339844 31.83520508 C39.82279344 29.90915496 40.15560423 27.98193506 40.48242188 26.05371094 C41.02214285 22.86935721 41.57961041 19.68847998 42.140625 16.5078125 C43.10820683 11.00763057 44.05834454 5.50467737 45 0 C51.6 0 58.2 0 65 0 C64.39832121 8.38255106 63.37983935 16.56200298 61.96875 24.84375 C61.77277222 26.01587036 61.57679443 27.18799072 61.37487793 28.39562988 C60.96363372 30.84974996 60.55007249 33.30348281 60.13427734 35.75683594 C59.497164 39.51673652 58.86712079 43.27777013 58.23828125 47.0390625 C57.83634426 49.43236001 57.43401457 51.82559162 57.03125 54.21875 C56.84268433 55.34164429 56.65411865 56.46453857 56.45983887 57.62145996 C56.28295532 58.66354614 56.10607178 59.70563232 55.92382812 60.77929688 C55.6918573 62.15063782 55.6918573 62.15063782 55.4552002 63.54968262 C55.0526202 65.71674838 54.53458311 67.86166757 54 70 C47.4 70 40.8 70 34 70 C34.33 67.03 34.66 64.06 35 61 C34.12988281 61.83144531 34.12988281 61.83144531 33.2421875 62.6796875 C32.07042969 63.76636719 32.07042969 63.76636719 30.875 64.875 C29.72644531 65.95394531 29.72644531 65.95394531 28.5546875 67.0546875 C23.6849756 70.76281675 19.00540199 71.29274539 13 71.3125 C11.824375 71.32925781 10.64875 71.34601563 9.4375 71.36328125 C3.11535226 70.69514518 -0.92773386 67.75097717 -5 63 C-11.15055181 50.74183217 -5.78330674 32.77163136 -3.5 20 C-3.16153545 18.04969136 -2.82428809 16.09917107 -2.48828125 14.1484375 C-1.67503284 9.42919304 -0.83713829 4.71530957 0 0 Z " fill="#E2E2E2" transform="translate(618,54)"/>
<path d="M0 0 C0.81300064 -0.00852997 1.62600128 -0.01705994 2.46363831 -0.02584839 C3.34685257 -0.02494202 4.23006683 -0.02403564 5.14004517 -0.02310181 C6.54560921 -0.03317764 6.54560921 -0.03317764 7.97956848 -0.04345703 C11.07819924 -0.06245975 14.17661367 -0.06636237 17.27529907 -0.06851196 C19.42997324 -0.07493824 21.58464653 -0.08166648 23.73931885 -0.08868408 C28.25686669 -0.1006625 32.77433803 -0.10436431 37.29190063 -0.10317993 C43.07801399 -0.1029767 48.86363641 -0.13028105 54.64963341 -0.16472435 C59.10034433 -0.18697168 63.5509367 -0.19101813 68.00169754 -0.18996048 C70.13472816 -0.19231961 72.2677619 -0.20116067 74.40073776 -0.21662521 C77.38580364 -0.23624114 80.36980557 -0.23046414 83.35488892 -0.21841431 C84.67363762 -0.23527283 84.67363762 -0.23527283 86.01902771 -0.25247192 C91.45298573 -0.1967877 94.56518944 0.64533763 98.87686157 4.26742554 C101.79888774 8.47311638 101.51335509 13.34624391 100.87686157 18.26742554 C98.80893498 22.40327872 97.12535272 24.54066539 92.87686157 26.26742554 C90.88654518 26.52469444 90.88654518 26.52469444 88.75372314 26.53485107 C87.9407225 26.54338104 87.12772186 26.55191101 86.29008484 26.56069946 C85.40687057 26.55979309 84.52365631 26.55888672 83.61367798 26.55795288 C82.20811394 26.56802872 82.20811394 26.56802872 80.77415466 26.57830811 C77.6755239 26.59731082 74.57710948 26.60121345 71.47842407 26.60336304 C69.32374991 26.60978932 67.16907662 26.61651755 65.0144043 26.62353516 C60.49685645 26.63551357 55.97938512 26.63921539 51.46182251 26.63803101 C45.67570916 26.63782777 39.89008673 26.66513213 34.10408974 26.69957542 C29.65337881 26.72182275 25.20278644 26.72586921 20.7520256 26.72481155 C18.61899498 26.72717069 16.48596125 26.73601175 14.35298538 26.75147629 C11.3679195 26.77109221 8.38391758 26.76531522 5.39883423 26.75326538 C4.08008553 26.7701239 4.08008553 26.7701239 2.73469543 26.787323 C-2.69926259 26.73163877 -5.81146629 25.88951345 -10.12313843 22.26742554 C-13.0451646 18.06173469 -12.75963195 13.18860716 -12.12313843 8.26742554 C-9.31894823 2.65904513 -6.30640656 0.0300315 0 0 Z " fill="#FFFFFF" transform="translate(12.123138427734375,93.73257446289063)"/>
<path d="M0 0 C4.7781188 2.90842014 7.39823915 6.68705554 9 12 C9.31049615 15.74073938 9.18825824 19.23483517 9 23 C2.73 23 -3.54 23 -10 23 C-10.99 20.36 -11.98 17.72 -13 15 C-16.73402039 12.51065307 -19.67885506 12.49066352 -24 13 C-28.54478632 14.51492877 -31.26182993 16.75054979 -33.89453125 20.7890625 C-37.70595335 28.41190671 -38.9811257 36.69451147 -37 45 C-35.66348126 48.20764498 -34.72605862 49.5088427 -31.875 51.4375 C-27.59874337 52.27415891 -24.04509318 51.56371116 -20 50 C-16.47238733 47.14788763 -15.04363606 45.08727213 -13 41 C-6.73 41 -0.46 41 6 41 C4.49508903 50.02946583 0.33197854 56.73918637 -6.78515625 62.53125 C-16.16547254 68.75170666 -26.87181402 70.11650906 -37.84375 68.609375 C-46.05357787 66.81059249 -51.37883074 62.73688087 -56.4453125 56.109375 C-61.03077003 47.96457631 -60.07698403 36.39097065 -58.3046875 27.51953125 C-54.86002257 16.33160692 -49.07328168 6.92423873 -38.95703125 0.75390625 C-27.01093449 -5.55418739 -11.97628456 -6.80309655 0 0 Z " fill="#E2E2E2" transform="translate(435,57)"/>
<path d="M0 0 C6.93 0 13.86 0 21 0 C20.01 5.61 19.02 11.22 18 17 C22.29 17 26.58 17 31 17 C30.34 21.95 29.68 26.9 29 32 C24.38 32 19.76 32 15 32 C14.896875 33.44375 14.79375 34.8875 14.6875 36.375 C14.15332301 42.43947991 13.14053007 48.38610267 12.01635742 54.36474609 C11.08459453 59.56397151 10.55357939 64.71502718 11 70 C11.495 70.495 11.495 70.495 12 71 C14.64 71 17.28 71 20 71 C20.495 78.92 20.495 78.92 21 87 C16.79726085 88.05068479 12.92021396 88.22047963 8.625 88.25 C7.8825 88.270625 7.14 88.29125 6.375 88.3125 C0.37781642 88.35488292 -3.68208384 87.00468424 -8.3125 83 C-12.33428058 78.23344523 -11.35536371 71.87597015 -11 66 C-10.26671871 60.04155352 -9.11037333 54.14715053 -8 48.25 C-7.70997091 46.66684344 -7.4209017 45.08351072 -7.1328125 43.5 C-6.43290456 39.66454959 -5.72012042 35.8317046 -5 32 C-7.97 32 -10.94 32 -14 32 C-13.85879286 30.06215735 -13.71187127 28.12473045 -13.5625 26.1875 C-13.48128906 25.10855469 -13.40007812 24.02960937 -13.31640625 22.91796875 C-13 20 -13 20 -12 17 C-8.7 17 -5.4 17 -2 17 C-1.93941406 16.19175781 -1.87882812 15.38351563 -1.81640625 14.55078125 C-1.73261719 13.48214844 -1.64882813 12.41351563 -1.5625 11.3125 C-1.48128906 10.25675781 -1.40007812 9.20101562 -1.31640625 8.11328125 C-1 5 -1 5 0 0 Z " fill="#E2E2E2" transform="translate(268,37)"/>
<path d="M0 0 C-0.96355353 12.66970387 -0.96355353 12.66970387 -2 18 C-2.61746094 17.96519531 -3.23492188 17.93039063 -3.87109375 17.89453125 C-9.86629954 17.70290367 -15.71710141 17.88318784 -21 21 C-25.91907353 25.72201866 -27.03859269 29.81619138 -28.0625 36.4375 C-28.21750977 37.33750732 -28.37251953 38.23751465 -28.53222656 39.16479492 C-28.86231858 41.09060731 -29.18417775 43.01784578 -29.49853516 44.94628906 C-30.02177103 48.13257647 -30.57538429 51.3124013 -31.13671875 54.4921875 C-32.10719654 59.99212158 -33.05830093 65.49506766 -34 71 C-40.6 71 -47.2 71 -54 71 C-53.39832121 62.61744894 -52.37983935 54.43799702 -50.96875 46.15625 C-50.77277222 44.98412964 -50.57679443 43.81200928 -50.37487793 42.60437012 C-49.96363372 40.15025004 -49.55007249 37.69651719 -49.13427734 35.24316406 C-48.497164 31.48326348 -47.86712079 27.72222987 -47.23828125 23.9609375 C-46.83634426 21.56763999 -46.43401457 19.17440838 -46.03125 16.78125 C-45.84268433 15.65835571 -45.65411865 14.53546143 -45.45983887 13.37854004 C-45.28295532 12.33645386 -45.10607178 11.29436768 -44.92382812 10.22070312 C-44.76918091 9.30647583 -44.61453369 8.39224854 -44.4552002 7.45031738 C-44.0526202 5.28325162 -43.53458311 3.13833243 -43 1 C-36.4 1 -29.8 1 -23 1 C-23.33 3.97 -23.66 6.94 -24 10 C-22.700625 8.3603125 -22.700625 8.3603125 -21.375 6.6875 C-15.09545038 -0.49328128 -9.09599467 -0.39739783 0 0 Z " fill="#E2E2E2" transform="translate(741,53)"/>
</svg>
